<?xml version="1.0" encoding="UTF-8"?><!DOCTYPE svg PUBLIC "-//W3C//DTD SVG 1.1//EN" "http://www.w3.org/Graphics/SVG/1.1/DTD/svg11.dtd"><svg xmlns="http://www.w3.org/2000/svg" xmlns:xlink="http://www.w3.org/1999/xlink" version="1.1" id="Layer_1" x="0px" y="0px" width="64px" height="64px" viewBox="0 0 64 64" xml:space="preserve"><g id="Sweater"><path fill="none" stroke="#494949" stroke-width="1.5" stroke-linecap="round" stroke-linejoin="round" stroke-miterlimit="10" d="M43.889 52.307c0-18.484.413-26.85.413-26.85l7.677 29.032h7.234L48.432 13.581c-2.324-3.049-3.871-3.617-3.871-3.617L37.02 6.865c-2.158 2.845-5.713 4.852-5.713 4.852h-.277s-3.582-2.007-5.714-4.852l-7.541 3.099s-1.546.568-3.871 3.617L4.684 54.49h7.059l6.294-29.032s.41 8.365.41 26.849h2.031v2.531h21.309v-2.531h2.102z"/><path fill="none" stroke="#494949" stroke-width="1.5" stroke-linecap="round" stroke-linejoin="round" stroke-miterlimit="10" d="M22.747 7.92l2.568-1.056c2.132 2.845 5.714 4.852 5.714 4.852h.276s3.554-2.007 5.712-4.852L39.6 7.925c-2.85 3.988-8.239 7.076-8.239 7.076h-.389c.001 0-5.478-2.999-8.225-7.081z"/><path fill="none" stroke="#494949" stroke-width="1.5" stroke-linecap="round" stroke-linejoin="round" stroke-miterlimit="10" d="M10.792 54.489H6.18l-.514 2.318h4.647z"/><path fill="none" stroke="#494949" stroke-width="1.5" stroke-linecap="round" stroke-linejoin="round" stroke-miterlimit="10" d="M53.223 54.489h4.613l.512 2.318h-4.647z"/><path fill="none" stroke="#494949" stroke-width="1.5" stroke-linecap="round" stroke-linejoin="round" stroke-miterlimit="10" d="M20.478 52.307h21.309v2.53H20.478z"/></g><metadata><rdf:RDF xmlns:rdf="http://www.w3.org/1999/02/22-rdf-syntax-ns#" xmlns:rdfs="http://www.w3.org/2000/01/rdf-schema#" xmlns:dc="http://purl.org/dc/elements/1.1/"><rdf:Description about="https://iconscout.com/legal#licenses" dc:title="sweater" dc:description="sweater" dc:publisher="Iconscout" dc:date="2017-09-22" dc:format="image/svg+xml" dc:language="en"><dc:creator><rdf:Bag><rdf:li>Creativebin</rdf:li></rdf:Bag></dc:creator></rdf:Description></rdf:RDF></metadata></svg>