<?xml version="1.0" encoding="UTF-8"?><!DOCTYPE svg PUBLIC "-//W3C//DTD SVG 1.1//EN" "http://www.w3.org/Graphics/SVG/1.1/DTD/svg11.dtd"><svg xmlns="http://www.w3.org/2000/svg" xmlns:xlink="http://www.w3.org/1999/xlink" version="1.1" id="Layer_1" x="0px" y="0px" width="64px" height="64px" viewBox="0 0 64 64" xml:space="preserve"><g id="Jacket"><path fill="none" stroke="#494949" stroke-width="1.5" stroke-linecap="round" stroke-linejoin="round" stroke-miterlimit="10" d="M44.182 38.9s.717 1.022 1.33 2.865c.614 1.844-.121 2.559 1.371 5.014 1.494 2.457-.451 2.15 1.803 5.424 0 0 1.262 1.344 1.057 3.299 0 0 2.799.453 4.504-.5 0 0-.887-2.318 0-4.434 0 0 .887 0-1.434-4.912 0 0 .137-6.006-2.252-9.623 0 0 .137-3.068-1.16-4.639 0 0-1.08-5.867-.808-9.895 0 0 .954-6.273-5.8-7.365 0 0 .93-2.746-4.697-4.254 0 0-5.546-1.869-12.36.43-6.385 2.156-4.504 3.617-4.401 4.541 0 0-5.831.203-5.115 7.98 0 0-.94 6.574-.163 8.314 0 0-2.256 2.873-1.378 4.275 0 0-1.247 2.762-1.04 4.195.203 1.434-1.742 2.914-1.742 7.574 0 3.582-2.251 2.557-.615 5.321l-.596 2.763s1.127.512 4.75 0c0 0-.365-2.865 1.68-3.479 0 0 .82-1.129 1.64-6.448.817-5.32 2.147-7.164 2.147-7.164s-.182 4.84-.795 11.258L19.596 52s7.367 5.117 25.892.818V50.26s-.636-6.086-1.306-11.36z"/><path fill="none" stroke="#494949" stroke-width="1.5" stroke-linecap="round" stroke-linejoin="round" stroke-miterlimit="10" d="M49.128 52.826c.341.576.735 1.52.613 2.676 0 0 2.799.453 4.504-.5 0 0-.49-1.283-.378-2.811-2.833-.9-4.737.637-4.737.637l-.002-.002z"/><path fill="none" stroke="#494949" stroke-width="1.5" stroke-linecap="round" stroke-linejoin="round" stroke-miterlimit="10" d="M16.056 52.512c-.838 1.062-.621 2.764-.621 2.764-3.623.513-4.75 0-4.75 0l.596-2.762c2.387-1.444 4.775 0 4.775-.002z"/><g fill="none" stroke="#494949" stroke-width="1.5" stroke-linecap="round" stroke-linejoin="round" stroke-miterlimit="10"><path d="M19.596 23.891s2.729 10.232 6.755 10.302"/><path d="M26.351 38.49s-2.185 6.527-4.504 7.779"/><path d="M44.852 24.303s-2.73 10.234-6.756 10.3"/><path d="M38.096 38.49s2.184 6.527 4.502 7.779"/><path d="M28.685 19.273s.593.949 0 3.1c-.595 2.148.377 3.531.53 4.502.153.975-.051 2.203 0 2.457"/><path d="M35.896 19.021s-1.231 3.91-.285 5.807c.945 1.896.315 2.848.285 4.213"/><path d="M20.902 38.184s.896-5.586 2.071-6.451"/><path d="M41.145 32.598s2.73 1.697 3.037 6.303"/></g><path fill="none" stroke="#494949" stroke-width="1.5" stroke-linecap="round" stroke-linejoin="round" stroke-miterlimit="10" d="M21.334 14.852c-.103-.924-1.983-2.385 4.401-4.541 6.813-2.299 12.361-.43 12.361-.43 5.625 1.508 4.696 4.254 4.696 4.254-2.151 5.568-10.562 5.568-10.562 5.568-7.945.188-10.896-4.851-10.896-4.851z"/><path fill="none" stroke="#494949" stroke-width="1.5" stroke-linecap="round" stroke-linejoin="round" stroke-miterlimit="10" d="M36.132 11.061s-3.231-.609-7.597.275c0 0-7.991.949-3.146 5.043 0 0 3.758 3.322 6.843 3.324 3.058.002 7.108-4.438 7.108-4.438 2.501-3.257-3.208-4.204-3.208-4.204z"/><path fill="none" stroke="#494949" stroke-width="1.5" stroke-linecap="round" stroke-linejoin="round" stroke-miterlimit="10" d="M28.535 11.336s-3.889.615 3.204 8.188c0 0 .139.41 1.162 0 0 0 7.074-8.285 2.66-8.525 0-.001-2.661-.548-7.026.337z"/><path fill="none" stroke="#494949" stroke-width="1.5" stroke-linecap="round" stroke-linejoin="round" stroke-miterlimit="10" d="M19.596 52s7.367 5.117 25.892.818V50.26c-14.908 4.947-25.451-.465-25.451-.465L19.596 52z"/><path fill="none" stroke="#494949" stroke-width="1.5" stroke-linecap="round" stroke-linejoin="round" stroke-miterlimit="10" d="M32.407 19.701c-7.944.189-11.072-4.85-11.072-4.85s-5.831.203-5.115 7.98c0 0-.94 6.574-.163 8.314 0 0-2.256 2.873-1.378 4.275 0 0-1.247 2.762-1.04 4.195.203 1.434-1.742 2.914-1.742 7.574 0 3.582-2.251 2.557-.615 5.321l-.596 2.763s1.127.512 4.75 0c0 0-.365-2.865 1.68-3.479 0 0 .82-1.129 1.64-6.448.817-5.32 2.147-7.164 2.147-7.164s-.182 4.84-.795 11.258L19.596 52s3.841 2.668 12.951 2.533c0 0-.67-13.381 0-15.564.671-2.186.285-4.775-.175-7.984-.462-3.208.035-11.284.035-11.284z"/><path fill="none" stroke="#494949" stroke-width="1.5" stroke-linecap="round" stroke-linejoin="round" stroke-miterlimit="10" d="M42.793 14.135c6.754 1.092 5.8 7.365 5.8 7.365-.272 4.027.808 9.895.808 9.895 1.297 1.57 1.16 4.639 1.16 4.639 2.389 3.616 2.252 9.623 2.252 9.623 2.319 4.911 1.434 4.911 1.434 4.911-.887 2.115 0 4.435 0 4.435-1.705.953-4.504.5-4.504.5.205-1.955-1.057-3.299-1.057-3.299-2.254-3.272-.309-2.968-1.803-5.425-1.492-2.454-.757-3.17-1.371-5.014-.613-1.842-1.33-2.865-1.33-2.865a609.029 609.029 0 0 1 1.307 11.359v2.559c-5.147 1.195-9.436 1.662-12.94 1.716 0 0-.67-13.382 0-15.563.671-2.187.285-4.775-.175-7.985-.463-3.207.034-11.283.034-11.283-.647-.002 8.17.168 10.385-5.568z"/></g><metadata><rdf:RDF xmlns:rdf="http://www.w3.org/1999/02/22-rdf-syntax-ns#" xmlns:rdfs="http://www.w3.org/2000/01/rdf-schema#" xmlns:dc="http://purl.org/dc/elements/1.1/"><rdf:Description about="https://iconscout.com/legal#licenses" dc:title="jacket" dc:description="jacket" dc:publisher="Iconscout" dc:date="2017-09-22" dc:format="image/svg+xml" dc:language="en"><dc:creator><rdf:Bag><rdf:li>Creativebin</rdf:li></rdf:Bag></dc:creator></rdf:Description></rdf:RDF></metadata></svg>