<?xml version="1.0" encoding="UTF-8"?><!DOCTYPE svg PUBLIC "-//W3C//DTD SVG 1.1//EN" "http://www.w3.org/Graphics/SVG/1.1/DTD/svg11.dtd"><svg xmlns="http://www.w3.org/2000/svg" xmlns:xlink="http://www.w3.org/1999/xlink" version="1.1" id="Layer_1" x="0px" y="0px" width="64px" height="64px" viewBox="0 0 64 64" xml:space="preserve"><g fill="none" stroke="#494949" stroke-width="1.5" stroke-linecap="round" stroke-linejoin="round" stroke-miterlimit="10" id="Scarf"><path d="M24.604 51.678s-.166 4.995.412 5.863"/><path d="M28.436 51.678s.496 4.995 1.076 5.863"/><path d="M33.374 51.492s.494 4.992 1.071 5.861"/><path d="M36.98 48.561s.496 4.996 1.074 5.862"/><path d="M31.733 25.042s6.261-3.863 5.901-8.174c0 0-.116-5.099-5.819-4.816 0 0-4.066.131-4.168 5.462 0 0-1.094 8.263 12.28 10.571l-2.409 6.024s-11.379-1.858-15.331-11.712c0 0-4.856-14.512 8.851-15.219 0 0 12.485-1.67 12.704 9.977 0 0 .313 7.565-6.028 10.463"/><path d="M28.705 30.386c1.932 1.339 3.898 2.224 5.482 2.796h.002c-.084 5.28 2.791 15.194 2.791 15.194l-3.631.165v3.137h-8.752c-1.156-14.363 4.109-21.295 4.109-21.295"/></g><metadata><rdf:RDF xmlns:rdf="http://www.w3.org/1999/02/22-rdf-syntax-ns#" xmlns:rdfs="http://www.w3.org/2000/01/rdf-schema#" xmlns:dc="http://purl.org/dc/elements/1.1/"><rdf:Description about="https://iconscout.com/legal#licenses" dc:title="scarf" dc:description="scarf" dc:publisher="Iconscout" dc:date="2017-09-22" dc:format="image/svg+xml" dc:language="en"><dc:creator><rdf:Bag><rdf:li>Creativebin</rdf:li></rdf:Bag></dc:creator></rdf:Description></rdf:RDF></metadata></svg>