<svg width="123" height="8" viewBox="0 0 123 8" fill="none" xmlns="http://www.w3.org/2000/svg">
<path d="M2.67496 7.19006L0.824951 0.190063H2.19495L3.45496 5.76006L4.93495 0.190063H6.34496L7.78496 5.76006L9.04495 0.190063H10.425L8.52495 7.19006H7.00494L5.61494 2.00006L4.18495 7.19006H2.67496Z" fill="#232D32"/>
<path d="M21.0526 7.19006V0.190063H25.6226V1.22006H22.3326V3.14006H25.3226V4.14006H22.3326V6.16006H25.6226V7.19006H21.0526Z" fill="#232D32"/>
<path d="M36.0838 7.19006L38.6438 0.190063H40.0838L42.6438 7.19006H41.2839L40.7238 5.57006H37.9939L37.4239 7.19006H36.0838ZM38.3439 4.57006H40.3739L39.3539 1.66006L38.3439 4.57006Z" fill="#232D32"/>
<path d="M53.2456 7.19006V0.190063H55.8156C56.3756 0.190063 56.8356 0.28673 57.1956 0.480064C57.5623 0.666731 57.8356 0.923397 58.0156 1.25006C58.1956 1.57006 58.2856 1.92673 58.2856 2.32006C58.2856 2.74673 58.1723 3.13673 57.9456 3.49006C57.7256 3.8434 57.3789 4.10006 56.9056 4.26006L58.3556 7.19006H56.8856L55.5856 4.43006H54.5256V7.19006H53.2456ZM54.5256 3.49006H55.7356C56.1622 3.49006 56.4756 3.38673 56.6756 3.18006C56.8756 2.9734 56.9756 2.70006 56.9756 2.36006C56.9756 2.02673 56.8756 1.76006 56.6756 1.56006C56.4822 1.36006 56.1656 1.26006 55.7256 1.26006H54.5256V3.49006Z" fill="#232D32"/>
<path d="M70.8061 7.19006V1.22006H68.7661V0.190063H74.1361V1.22006H72.0861V7.19006H70.8061Z" fill="#232D32"/>
<path d="M84.7842 7.19006V0.190063H86.0642V3.10006H89.2043V0.190063H90.4843V7.19006H89.2043V4.14006H86.0642V7.19006H84.7842Z" fill="#232D32"/>
<path d="M101.545 7.19006V0.190063H106.115V1.22006H102.825V3.14006H105.815V4.14006H102.825V6.16006H106.115V7.19006H101.545Z" fill="#232D32"/>
<path d="M117.026 7.19006V0.190063H119.596C120.156 0.190063 120.616 0.28673 120.976 0.480064C121.343 0.666731 121.616 0.923397 121.796 1.25006C121.976 1.57006 122.066 1.92673 122.066 2.32006C122.066 2.74673 121.953 3.13673 121.726 3.49006C121.506 3.8434 121.159 4.10006 120.686 4.26006L122.136 7.19006H120.666L119.366 4.43006H118.306V7.19006H117.026ZM118.306 3.49006H119.516C119.943 3.49006 120.256 3.38673 120.456 3.18006C120.656 2.9734 120.756 2.70006 120.756 2.36006C120.756 2.02673 120.656 1.76006 120.456 1.56006C120.263 1.36006 119.946 1.26006 119.506 1.26006H118.306V3.49006Z" fill="#232D32"/>
</svg>
